<?xml version="1.0" encoding="UTF-8"?>
<svg id="Ebene_1" data-name="Ebene 1" xmlns="http://www.w3.org/2000/svg" viewBox="0 0 536.62 246.64">
  <defs>
    <style>
      .cls-1 {
        fill: #e3000b;
      }

      .cls-2 {
        fill: #3a3a39;
      }
    </style>
  </defs>
  <g>
    <path class="cls-2" d="M174.02,234.55c-.21.82-.4,1.61-.58,2.38s-.33,1.5-.46,2.21-.24,1.37-.33,2.01c-.08-.46-.17-.94-.26-1.46s-.21-1.05-.33-1.62-.26-1.15-.42-1.75-.33-1.2-.51-1.82l-5.35-17.85h-3.42l-5.14,17.71c-.17.59-.33,1.17-.48,1.76s-.29,1.17-.41,1.74-.24,1.14-.34,1.69-.19,1.08-.25,1.59c-.08-.5-.16-1-.25-1.52s-.19-1.05-.3-1.6-.23-1.11-.37-1.69-.28-1.17-.44-1.77l-4.59-17.91h-3.46l7.58,28.55h3.34l5.51-19.2c.17-.57.33-1.14.48-1.7s.28-1.09.39-1.58.2-.93.27-1.31.12-.66.15-.86c.04.2.1.49.19.87s.19.83.32,1.33.27,1.03.42,1.58.31,1.1.48,1.65l5.66,19.22h3.34l7.64-28.55h-3.48l-4.59,17.89Z"/>
    <polygon class="cls-2" points="194.22 245.21 210.11 245.21 210.11 242.28 197.54 242.28 197.54 231.72 209.39 231.72 209.39 228.83 197.54 228.83 197.54 219.59 210.11 219.59 210.11 216.66 194.22 216.66 194.22 245.21"/>
    <path class="cls-2" d="M239.2,230.94c.89-.62,1.6-1.44,2.15-2.45s.82-2.27.82-3.78c0-1.84-.38-3.35-1.13-4.53s-1.9-2.07-3.43-2.65-3.47-.87-5.81-.87h-7.71v28.55h3.32v-11.91h5.94l6.99,11.91h3.87l-7.83-12.83c1-.34,1.95-.82,2.83-1.45ZM231.93,230.49h-4.53v-10.96h4.2c2.42,0,4.22.4,5.38,1.21s1.75,2.18,1.75,4.12-.55,3.25-1.65,4.2-2.82,1.43-5.15,1.43Z"/>
    <path class="cls-2" d="M273.09,231.33c-.96-.52-2.07-.88-3.32-1.07v-.2c1.18-.22,2.18-.62,2.99-1.19s1.42-1.3,1.85-2.18.63-1.87.63-2.98c0-2.57-.9-4.38-2.7-5.45s-4.48-1.6-8.05-1.6h-8.09v28.55h9.82c2.03,0,3.79-.31,5.27-.93s2.63-1.53,3.45-2.74,1.22-2.7,1.22-4.45c0-1.45-.27-2.64-.82-3.57s-1.3-1.67-2.27-2.19ZM259.73,219.49h4.92c2.49,0,4.3.36,5.44,1.07s1.71,1.89,1.71,3.52-.48,2.77-1.44,3.59-2.68,1.23-5.17,1.23h-5.47v-9.41ZM271.06,240.89c-1.05,1-2.85,1.49-5.39,1.49h-5.94v-10.68h5.64c1.77,0,3.19.21,4.25.62s1.83,1,2.3,1.77.71,1.69.71,2.77c0,1.69-.53,3.04-1.58,4.03Z"/>
    <polygon class="cls-2" points="289.89 245.21 305.79 245.21 305.79 242.28 293.21 242.28 293.21 231.72 305.07 231.72 305.07 228.83 293.21 228.83 293.21 219.59 305.79 219.59 305.79 216.66 289.89 216.66 289.89 245.21"/>
    <path class="cls-2" d="M328.02,216.54l-11.17,28.67h3.36l3.5-9.06h11.45l3.52,9.06h3.44l-11.09-28.67h-2.99ZM324.82,233.2l3.4-9c.1-.31.23-.69.37-1.14s.29-.94.44-1.46.29-1.06.42-1.59c.12.35.27.81.45,1.39s.36,1.13.54,1.66.3.92.38,1.15l3.34,9h-9.34Z"/>
    <path class="cls-2" d="M364.9,233.22h6.66v8.75c-.75.21-1.59.39-2.52.54s-2.03.22-3.32.22c-2.57,0-4.66-.49-6.29-1.46s-2.83-2.35-3.59-4.11-1.15-3.84-1.15-6.22.44-4.49,1.32-6.25,2.15-3.12,3.81-4.08,3.66-1.45,5.99-1.45c1.35,0,2.67.16,3.94.49s2.43.72,3.49,1.17l1.27-2.89c-1.22-.53-2.55-.95-3.97-1.24s-2.93-.44-4.52-.44c-3.1,0-5.75.61-7.96,1.83s-3.89,2.93-5.06,5.13-1.75,4.78-1.75,7.73.53,5.63,1.58,7.82,2.6,3.88,4.64,5.07,4.54,1.78,7.51,1.78c1.95,0,3.72-.12,5.3-.37s3.12-.62,4.62-1.13v-13.85h-9.98v2.97Z"/>
    <polygon class="cls-2" points="389.41 245.21 405.31 245.21 405.31 242.28 392.73 242.28 392.73 231.72 404.59 231.72 404.59 228.83 392.73 228.83 392.73 219.59 405.31 219.59 405.31 216.66 389.41 216.66 389.41 245.21"/>
    <path class="cls-2" d="M437.48,233.2c0,.83.02,1.74.05,2.71s.07,1.88.11,2.71.07,1.49.1,1.94h-.14l-15.51-23.91h-3.81v28.55h3.09v-16.41c0-.95-.02-1.88-.05-2.8s-.08-1.78-.13-2.6-.1-1.54-.14-2.18h.16l15.57,23.98h3.83v-28.55h-3.12v16.54Z"/>
    <polygon class="cls-2" points="450.48 219.59 459.46 219.59 459.46 245.21 462.8 245.21 462.8 219.59 471.75 219.59 471.75 216.66 450.48 216.66 450.48 219.59"/>
    <path class="cls-2" d="M500.01,235.18c0,1.5-.27,2.82-.81,3.96s-1.37,2.02-2.48,2.66-2.54.95-4.29.95c-2.55,0-4.47-.66-5.75-1.97s-1.92-3.18-1.92-5.61v-18.5h-3.34v18.4c0,3.2.92,5.76,2.76,7.68s4.53,2.87,8.06,2.87c2.47,0,4.53-.45,6.17-1.36s2.87-2.15,3.68-3.72,1.22-3.37,1.22-5.39v-18.48h-3.3v18.52Z"/>
    <path class="cls-2" d="M528.79,232.38c1-.34,1.95-.82,2.83-1.45s1.6-1.44,2.15-2.45.82-2.27.82-3.78c0-1.84-.38-3.35-1.13-4.53s-1.9-2.07-3.43-2.65-3.47-.87-5.81-.87h-7.71v28.55h3.32v-11.91h5.94l6.99,11.91h3.87l-7.83-12.83ZM524.36,230.49h-4.53v-10.96h4.2c2.42,0,4.22.4,5.38,1.21s1.75,2.18,1.75,4.12-.55,3.25-1.65,4.2-2.82,1.43-5.15,1.43Z"/>
    <path class="cls-2" d="M32.3,26.88c-4.95,0-9.15,1.17-12.6,3.5V0H1.51v98h18.2v-36.82c0-5.69,1-9.87,3.01-12.53,2.01-2.66,5.2-3.99,9.59-3.99s7.58,1.33,9.59,3.99c2.01,2.66,3.01,6.84,3.01,12.53v36.82h18.2v-36.82c0-11.39-2.8-19.95-8.4-25.69s-13.07-8.61-22.4-8.61Z"/>
    <path class="cls-2" d="M116.81,64.82c0,5.69-1,9.87-3.01,12.53-2.01,2.66-5.21,3.99-9.59,3.99s-7.58-1.33-9.59-3.99c-2.01-2.66-3.01-6.84-3.01-12.53V28h-18.2v36.82c0,11.39,2.8,19.95,8.4,25.69s13.07,8.61,22.4,8.61,16.8-2.87,22.4-8.61c5.6-5.74,8.4-14.3,8.4-25.69V28h-18.2v36.82Z"/>
    <path class="cls-2" d="M221.6,26.88c-4.67,0-8.94.82-12.81,2.45-3.88,1.63-7.07,4.04-9.59,7.21-2.52-3.17-5.72-5.58-9.59-7.21-3.87-1.63-8.14-2.45-12.81-2.45-9.43,0-17.04,2.89-22.82,8.68-5.79,5.79-8.68,14.33-8.68,25.62v36.82h18.2v-36.82c0-5.6,1.1-9.75,3.29-12.46,2.19-2.71,5.53-4.06,10.01-4.06s7.93,1.35,10.08,4.06c2.14,2.71,3.22,6.86,3.22,12.46v36.82h18.2v-36.82c0-5.6,1.1-9.75,3.29-12.46,2.19-2.71,5.53-4.06,10.01-4.06s7.93,1.35,10.08,4.06c2.15,2.71,3.22,6.86,3.22,12.46v36.82h18.2v-36.82c0-11.29-2.89-19.83-8.68-25.62-5.79-5.79-13.39-8.68-22.82-8.68Z"/>
    <path class="cls-2" d="M354.5,61.18v36.82h18.2v-36.82c0-11.29-2.89-19.83-8.68-25.62-5.79-5.79-13.39-8.68-22.82-8.68-4.67,0-8.94.82-12.81,2.45-3.87,1.63-7.07,4.04-9.59,7.21-2.52-3.17-5.72-5.58-9.59-7.21-3.88-1.63-8.14-2.45-12.81-2.45-9.43,0-17.03,2.89-22.82,8.68-5.79,5.79-8.68,14.33-8.68,25.62v36.82h18.2v-36.82c0-5.6,1.1-9.75,3.29-12.46,2.19-2.71,5.53-4.06,10.01-4.06s7.93,1.35,10.08,4.06c2.15,2.71,3.22,6.86,3.22,12.46v36.82h18.2v-36.82c0-5.6,1.1-9.75,3.29-12.46,2.19-2.71,5.53-4.06,10.01-4.06s7.93,1.35,10.08,4.06c2.14,2.71,3.22,6.86,3.22,12.46Z"/>
    <path class="cls-2" d="M431,77.28c-1.49,1.21-3.15,2.19-4.97,2.94-1.82.75-4.18,1.12-7.07,1.12-4.11,0-7.58-1-10.43-3.01-2.85-2.01-4.69-4.74-5.53-8.19h51.94c.46-2.8.65-5.69.56-8.68-.19-7.09-2.08-13.25-5.67-18.48-3.59-5.23-8.14-9.22-13.65-11.97-5.51-2.75-11.25-4.13-17.22-4.13-6.53,0-12.53,1.66-17.99,4.97-5.46,3.31-9.75,7.75-12.88,13.3-3.13,5.55-4.69,11.55-4.69,17.99s1.61,12.55,4.83,18.06c3.22,5.51,7.58,9.87,13.09,13.09,5.51,3.22,11.57,4.83,18.2,4.83,7.28,0,13.91-2.01,19.88-6.02,5.97-4.01,10.41-9.24,13.3-15.68l-21.7-.14ZM409.44,47.6c2.8-1.96,6.16-2.94,10.08-2.94,3.54,0,6.84,1,9.87,3.01,3.03,2.01,5.25,4.64,6.65,7.91h-33.04c1.49-3.36,3.64-6.02,6.44-7.98Z"/>
    <rect class="cls-2" x="466.2" width="18.2" height="98"/>
    <path class="cls-2" d="M536.54,80.64c-4.48,0-7.7-1.21-9.66-3.64-1.96-2.43-2.94-6.44-2.94-12.04v-19.18h12.6v-17.78h-12.6V.14h-18.2v27.86h-10.36v17.78h10.36v19.18c0,11.29,2.78,19.69,8.33,25.2,5.55,5.51,13.04,8.26,22.47,8.26v-17.78Z"/>
  </g>
  <g>
    <path class="cls-1" d="M151.98,127.09c-5.51-3.22-11.53-4.83-18.06-4.83s-12.55,1.61-18.06,4.83c-5.51,3.22-9.87,7.61-13.09,13.16-3.22,5.55-4.83,11.6-4.83,18.13v87.22h18.34v-56.42c4.95,3.55,10.83,5.32,17.64,5.32s12.55-1.61,18.06-4.83c5.51-3.22,9.89-7.61,13.16-13.16,3.27-5.55,4.9-11.6,4.9-18.13s-1.63-12.58-4.9-18.13c-3.27-5.55-7.65-9.94-13.16-13.16ZM146.8,171.47c-3.36,3.5-7.61,5.25-12.74,5.25s-9.43-1.75-12.88-5.25c-3.46-3.5-5.18-7.86-5.18-13.09s1.73-9.59,5.18-13.09c3.45-3.5,7.74-5.25,12.88-5.25s9.38,1.75,12.74,5.25,5.04,7.86,5.04,13.09-1.68,9.59-5.04,13.09Z"/>
    <path class="cls-1" d="M234.22,127.09c-5.51-3.22-11.53-4.83-18.06-4.83s-12.55,1.61-18.06,4.83c-5.51,3.22-9.89,7.61-13.16,13.16-3.27,5.55-4.9,11.6-4.9,18.13s1.63,12.58,4.9,18.13c3.27,5.55,7.65,9.94,13.16,13.16,5.51,3.22,11.53,4.83,18.06,4.83,3.92,0,7.61-.84,11.06-2.52,3.45-1.68,5.69-3.69,6.72-6.02v7.42h18.2v-35c0-6.53-1.61-12.58-4.83-18.13-3.22-5.55-7.58-9.94-13.09-13.16ZM229.04,171.47c-3.36,3.5-7.61,5.25-12.74,5.25s-9.43-1.75-12.88-5.25c-3.46-3.5-5.18-7.86-5.18-13.09s1.72-9.59,5.18-13.09c3.45-3.5,7.75-5.25,12.88-5.25s9.38,1.75,12.74,5.25c3.36,3.5,5.04,7.86,5.04,13.09s-1.68,9.59-5.04,13.09Z"/>
    <path class="cls-1" d="M271.2,131.51c-5.51,5.6-8.26,13.95-8.26,25.06v36.82h18.2v-36.82c0-5.41.98-9.38,2.94-11.9,1.96-2.52,4.95-3.78,8.96-3.78h.7v-17.78h-.84c-8.96,0-16.2,2.8-21.7,8.4Z"/>
    <path class="cls-1" d="M303.18,141.17h10.36v19.18c0,11.29,2.78,19.69,8.33,25.2,5.55,5.51,13.04,8.26,22.47,8.26v-17.78c-4.48,0-7.7-1.21-9.66-3.64-1.96-2.43-2.94-6.44-2.94-12.04v-19.18h12.6v-17.78h-41.16v17.78Z"/>
    <path class="cls-1" d="M385.14,122.26c-9.33,0-16.8,2.87-22.4,8.61s-8.4,14.3-8.4,25.69v36.82h18.2v-36.82c0-5.69,1-9.87,3.01-12.53,2.01-2.66,5.2-3.99,9.59-3.99s7.58,1.33,9.59,3.99c2.01,2.66,3.01,6.84,3.01,12.53v36.82h18.2v-36.82c0-11.39-2.8-19.95-8.4-25.69-5.6-5.74-13.07-8.61-22.4-8.61Z"/>
    <path class="cls-1" d="M492.07,138.37c-3.59-5.23-8.14-9.22-13.65-11.97-5.51-2.75-11.25-4.13-17.22-4.13-6.53,0-12.53,1.66-17.99,4.97-5.46,3.31-9.75,7.75-12.88,13.3-3.13,5.55-4.69,11.55-4.69,17.99s1.61,12.55,4.83,18.06c3.22,5.51,7.58,9.87,13.09,13.09,5.51,3.22,11.57,4.83,18.2,4.83,7.28,0,13.91-2.01,19.88-6.02,5.97-4.01,10.41-9.24,13.3-15.68l-21.7-.14c-1.49,1.21-3.15,2.19-4.97,2.94-1.82.75-4.18,1.12-7.07,1.12-4.11,0-7.58-1-10.43-3.01-2.85-2.01-4.69-4.74-5.53-8.19h51.94c.47-2.8.65-5.69.56-8.68-.19-7.09-2.08-13.25-5.67-18.48ZM445.24,150.97c1.49-3.36,3.64-6.02,6.44-7.98,2.8-1.96,6.16-2.94,10.08-2.94,3.55,0,6.84,1,9.87,3.01,3.03,2.01,5.25,4.64,6.65,7.91h-33.04Z"/>
    <path class="cls-1" d="M535.7,123.1c-8.96,0-16.19,2.8-21.7,8.4-5.51,5.6-8.26,13.95-8.26,25.06v36.82h18.2v-36.82c0-5.41.98-9.38,2.94-11.9,1.96-2.52,4.95-3.78,8.96-3.78h.7v-17.78h-.84Z"/>
    <ellipse class="cls-1" cx="18.63" cy="140.75" rx="18.63" ry="18.26"/>
    <ellipse class="cls-1" cx="18.63" cy="228.38" rx="18.63" ry="18.26"/>
    <path class="cls-1" d="M63.33,193.02c4.76,0,8.62-3.78,8.62-8.45s-3.86-8.45-8.62-8.45-8.62,3.79-8.62,8.45,3.86,8.45,8.62,8.45Z"/>
    <ellipse class="cls-1" cx="63.33" cy="228.38" rx="18.63" ry="18.26"/>
    <path class="cls-1" d="M27.25,184.57c0-4.67-3.86-8.45-8.62-8.45s-8.62,3.79-8.62,8.45,3.86,8.45,8.62,8.45,8.62-3.78,8.62-8.45Z"/>
    <path class="cls-1" d="M63.33,149.21c4.77,0,8.62-3.78,8.62-8.45s-3.86-8.45-8.62-8.45-8.62,3.78-8.62,8.45,3.86,8.45,8.62,8.45Z"/>
  </g>
</svg>